<svg width="46" height="34" viewBox="0 0 46 34" fill="none" xmlns="http://www.w3.org/2000/svg">
<path d="M26.65 12V9.6C27.75 9.13333 28.875 8.78333 30.025 8.55C31.175 8.31667 32.3833 8.2 33.65 8.2C34.5166 8.2 35.3666 8.26667 36.2 8.4C37.0333 8.53333 37.85 8.7 38.65 8.9V11.1C37.85 10.8 37.0416 10.575 36.225 10.425C35.4083 10.275 34.55 10.2 33.65 10.2C32.3833 10.2 31.1666 10.3583 30 10.675C28.8333 10.9917 27.7166 11.4333 26.65 12ZM26.65 23V20.55C27.75 20.0833 28.875 19.7417 30.025 19.525C31.175 19.3083 32.3833 19.2 33.65 19.2C34.5166 19.2 35.3666 19.2667 36.2 19.4C37.0333 19.5333 37.85 19.7 38.65 19.9V22.1C37.85 21.8 37.0416 21.575 36.225 21.425C35.4083 21.275 34.55 21.2 33.65 21.2C32.3833 21.2 31.1666 21.35 30 21.65C28.8333 21.95 27.7166 22.4 26.65 23ZM26.65 17.5V15.1C27.75 14.6333 28.875 14.2833 30.025 14.05C31.175 13.8167 32.3833 13.7 33.65 13.7C34.5166 13.7 35.3666 13.7667 36.2 13.9C37.0333 14.0333 37.85 14.2 38.65 14.4V16.6C37.85 16.3 37.0416 16.075 36.225 15.925C35.4083 15.775 34.55 15.7 33.65 15.7C32.3833 15.7 31.1666 15.8583 30 16.175C28.8333 16.4917 27.7166 16.9333 26.65 17.5ZM11.05 25.7C12.85 25.7 14.5916 25.9083 16.275 26.325C17.9583 26.7417 19.6166 27.3667 21.25 28.2L5.73981 26.325C4.23981 25.325 11.75 17.15 9.99998 16.6C8.24998 16.05 11.8 10.675 9.99998 10.675C8.73331 10.675 8.54164 3.85833 7.32498 4.175C6.10831 4.49167 9.49998 1.55 9.49998 2.55L17.15 27.05H3.64998C4.68331 26.5833 5.85831 26.2417 7.17498 26.025C8.49164 25.8083 9.78331 25.7 11.05 25.7ZM24.25 28.2C25.9166 27.3667 27.55 26.7417 29.15 26.325C30.75 25.9083 32.45 25.7 34.25 25.7C35.5166 25.7 36.825 25.8 38.175 26C39.525 26.2 20.0333 29.0167 21 29.35V10.05C19.8666 9.45 36.0369 4 37.7 6.5C36.4333 6.25 34.9166 8.9 33.65 8.9C31.85 8.9 30.8333 11.45 29.15 12C27.4666 12.55 26.5 12.7 25 13.7L24.25 28.2ZM22.8 33.45C21.1 32.2167 19.25 31.225 17.25 30.475C15.25 29.725 13.1833 29.35 11.05 29.35C9.88331 29.35 8.73331 29.5083 7.59998 29.825C6.46664 30.1417 5.33331 30.5 4.19998 30.9C3.23331 31.3667 2.29164 31.3167 1.37498 30.75C0.458309 30.1833 -2.38081e-05 29.35 -2.38081e-05 28.25V5.15C-2.38081e-05 4.45 0.15831 3.80833 0.474976 3.225C0.791643 2.64167 1.24998 2.2 1.84998 1.9C3.28331 1.23333 4.76664 0.75 6.29998 0.45C7.83331 0.15 9.39998 0 11 0C13.1 0 15.15 0.291667 17.15 0.875C19.15 1.45833 21.0166 2.35 22.75 3.55C24.45 2.35 26.2833 1.45833 28.25 0.875C30.2166 0.291667 32.2333 0 34.3 0C35.9 0 37.4583 0.158333 38.975 0.474999C40.4916 0.791666 41.9666 1.26667 43.4 1.9C44 2.2 44.4666 2.64167 44.8 3.225C45.1333 3.80833 45.3 4.45 45.3 5.15V28.55C45.3 29.65 44.825 30.4583 43.875 30.975C42.925 31.4917 41.9833 31.4667 41.05 30.9C39.95 30.4667 38.8333 30.1 37.7 29.8C36.5666 29.5 35.4166 29.35 34.25 29.35C32.15 29.35 30.1416 29.7333 28.225 30.5C26.3083 31.2667 24.5 32.25 22.8 33.45Z" fill="#FFA901"/>
<path fill-rule="evenodd" clip-rule="evenodd" d="M26.65 9.59998V12C27.7167 11.4333 28.8334 10.9917 30 10.675C31.1666 10.3583 32.3833 10.2 33.65 10.2C34.55 10.2 35.4083 10.275 36.225 10.425C37.0416 10.575 37.85 10.8 38.65 11.1V8.90002C37.85 8.69995 37.0333 8.53333 36.2 8.40002C35.3667 8.26672 34.5167 8.19995 33.65 8.19995C32.3833 8.19995 31.175 8.31665 30.025 8.55005C28.875 8.78333 27.75 9.1333 26.65 9.59998ZM26.65 20.55V23C27.7167 22.4 28.8334 21.95 30 21.65C31.1666 21.35 32.3833 21.2 33.65 21.2C34.55 21.2 35.4083 21.275 36.225 21.425C37.0416 21.575 37.85 21.8 38.65 22.1V19.9C37.85 19.7 37.0333 19.5333 36.2 19.4C35.3667 19.2667 34.5167 19.2 33.65 19.2C32.3833 19.2 31.175 19.3083 30.025 19.525C28.875 19.7417 27.75 20.0834 26.65 20.55ZM26.65 15.1V17.5C27.7167 16.9333 28.8334 16.4917 30 16.175C31.1666 15.8583 32.3833 15.7 33.65 15.7C34.55 15.7 35.4083 15.775 36.225 15.925C37.0416 16.075 37.85 16.3 38.65 16.6V14.4C37.85 14.2 37.0333 14.0333 36.2 13.9C35.3667 13.7667 34.5167 13.7 33.65 13.7C32.3833 13.7 31.175 13.8167 30.025 14.05C28.875 14.2833 27.75 14.6333 26.65 15.1Z" fill="white"/>
</svg>
