<svg width="46" height="34" viewBox="0 0 46 34" fill="none" xmlns="http://www.w3.org/2000/svg">
<path d="M26.65 12V9.6C27.75 9.13333 28.875 8.78333 30.025 8.55C31.175 8.31667 32.3833 8.2 33.65 8.2C34.5167 8.2 35.3667 8.26667 36.2 8.4C37.0333 8.53333 37.85 8.7 38.65 8.9V11.1C37.85 10.8 37.0417 10.575 36.225 10.425C35.4083 10.275 34.55 10.2 33.65 10.2C32.3833 10.2 31.1667 10.3583 30 10.675C28.8333 10.9917 27.7167 11.4333 26.65 12ZM26.65 23V20.55C27.75 20.0833 28.875 19.7417 30.025 19.525C31.175 19.3083 32.3833 19.2 33.65 19.2C34.5167 19.2 35.3667 19.2667 36.2 19.4C37.0333 19.5333 37.85 19.7 38.65 19.9V22.1C37.85 21.8 37.0417 21.575 36.225 21.425C35.4083 21.275 34.55 21.2 33.65 21.2C32.3833 21.2 31.1667 21.35 30 21.65C28.8333 21.95 27.7167 22.4 26.65 23ZM26.65 17.5V15.1C27.75 14.6333 28.875 14.2833 30.025 14.05C31.175 13.8167 32.3833 13.7 33.65 13.7C34.5167 13.7 35.3667 13.7667 36.2 13.9C37.0333 14.0333 37.85 14.2 38.65 14.4V16.6C37.85 16.3 37.0417 16.075 36.225 15.925C35.4083 15.775 34.55 15.7 33.65 15.7C32.3833 15.7 31.1667 15.8583 30 16.175C28.8333 16.4917 27.7167 16.9333 26.65 17.5ZM11.05 25.7C12.85 25.7 14.5917 25.9083 16.275 26.325C17.9583 26.7417 19.6167 27.3667 21.25 28.2V6.85C19.75 5.85 18.125 5.075 16.375 4.525C14.625 3.975 12.85 3.7 11.05 3.7C9.78333 3.7 8.54167 3.85833 7.325 4.175C6.10833 4.49167 4.88333 4.88333 3.65 5.35V27.05C4.68333 26.5833 5.85833 26.2417 7.175 26.025C8.49167 25.8083 9.78333 25.7 11.05 25.7ZM24.25 28.2C25.9167 27.3667 27.55 26.7417 29.15 26.325C30.75 25.9083 32.45 25.7 34.25 25.7C35.5167 25.7 36.825 25.8 38.175 26C39.525 26.2 40.6833 26.4667 41.65 26.8V5.35C40.5167 4.75 39.3167 4.325 38.05 4.075C36.7833 3.825 35.5167 3.7 34.25 3.7C32.45 3.7 30.7083 3.975 29.025 4.525C27.3417 5.075 25.75 5.85 24.25 6.85V28.2ZM22.8 33.45C21.1 32.2167 19.25 31.225 17.25 30.475C15.25 29.725 13.1833 29.35 11.05 29.35C9.88333 29.35 8.73333 29.5083 7.6 29.825C6.46667 30.1417 5.33333 30.5 4.2 30.9C3.23333 31.3667 2.29167 31.3167 1.375 30.75C0.458333 30.1833 0 29.35 0 28.25V5.15C0 4.45 0.158333 3.80833 0.475 3.225C0.791667 2.64167 1.25 2.2 1.85 1.9C3.28333 1.23333 4.76667 0.75 6.3 0.45C7.83333 0.15 9.4 0 11 0C13.1 0 15.15 0.291667 17.15 0.875C19.15 1.45833 21.0167 2.35 22.75 3.55C24.45 2.35 26.2833 1.45833 28.25 0.875C30.2167 0.291667 32.2333 0 34.3 0C35.9 0 37.4583 0.158333 38.975 0.474999C40.4917 0.791666 41.9667 1.26667 43.4 1.9C44 2.2 44.4667 2.64167 44.8 3.225C45.1333 3.80833 45.3 4.45 45.3 5.15V28.55C45.3 29.65 44.825 30.4583 43.875 30.975C42.925 31.4917 41.9833 31.4667 41.05 30.9C39.95 30.4667 38.8333 30.1 37.7 29.8C36.5667 29.5 35.4167 29.35 34.25 29.35C32.15 29.35 30.1417 29.7333 28.225 30.5C26.3083 31.2667 24.5 32.25 22.8 33.45V33.45Z" fill="black"/>
</svg>
