<svg width="29" height="29" viewBox="0 0 29 29" fill="none" xmlns="http://www.w3.org/2000/svg">
<path d="M14.2 28.4C13.7 28.4 13.2917 28.2333 12.975 27.9C12.6583 27.5667 12.5 27.1667 12.5 26.7V15.9H1.7C1.23333 15.9 0.833333 15.7333 0.5 15.4C0.166667 15.0667 0 14.6667 0 14.2C0 13.7 0.166667 13.2917 0.5 12.975C0.833333 12.6583 1.23333 12.5 1.7 12.5H12.5V1.7C12.5 1.23333 12.6667 0.833333 13 0.5C13.3333 0.166667 13.7333 0 14.2 0C14.7 0 15.1083 0.166667 15.425 0.5C15.7417 0.833333 15.9 1.23333 15.9 1.7V12.5H26.7C27.1667 12.5 27.5667 12.6667 27.9 13C28.2333 13.3333 28.4 13.7333 28.4 14.2C28.4 14.7 28.2333 15.1083 27.9 15.425C27.5667 15.7417 27.1667 15.9 26.7 15.9H15.9V26.7C15.9 27.1667 15.7333 27.5667 15.4 27.9C15.0667 28.2333 14.6667 28.4 14.2 28.4Z" fill="black"/>
</svg>
